<svg width="133.48001708984373px" height="119.68001708984374px" xmlns="http://www.w3.org/2000/svg" viewBox="183.25999145507814 15.159991455078128 133.48001708984373 119.68001708984374" style="background: rgba(0, 0, 0, 0) none repeat scroll 0% 0%;" preserveAspectRatio="xMidYMid"><defs><filter id="editing-extrusion" x="-100%" y="-100%" width="300%" height="300%"><feFlood result="color1" flood-color="#ffffff"></feFlood><feConvolveMatrix order="3,3" divisor="1" kernelMatrix="1 0 0 0 1 0 0 0 1" in="SourceAlpha" result="extrude"></feConvolveMatrix><feComposite in="color1" in2="extrude" result="comp-extrude" operator="in"></feComposite><feOffset dx="1.5" dy="1.5" in="comp-extrude" result="offset-extrude"></feOffset><feMerge><feMergeNode in="offset-extrude"></feMergeNode><feMergeNode in="SourceGraphic"></feMergeNode></feMerge></filter></defs><g filter="url(#editing-extrusion)"><g transform="translate(209.74608993530273, 100.630859375)"><path d="M32.90-14.34L32.90-14.34Q32.90-10.18 30.91-6.75L30.91-6.75L30.91-6.75Q28.93-3.33 25.50-1.34L25.50-1.34L25.50-1.34Q22.08 0.64 17.92 0.64L17.92 0.64L17.92 0.64Q13.70 0.64 10.27-1.34L10.27-1.34L10.27-1.34Q6.85-3.33 4.86-6.75L4.86-6.75L4.86-6.75Q2.88-10.18 2.88-14.34L2.88-14.34L2.88-14.34Q2.88-15.42 3.58-16.13L3.58-16.13L3.58-16.13Q4.29-16.83 5.38-16.83L5.38-16.83L5.38-16.83Q6.46-16.83 7.17-16.13L7.17-16.13L7.17-16.13Q7.87-15.42 7.87-14.34L7.87-14.34L7.87-14.34Q7.87-11.46 9.22-9.12L9.22-9.12L9.22-9.12Q10.56-6.78 12.86-5.44L12.86-5.44L12.86-5.44Q15.17-4.10 17.92-4.10L17.92-4.10L17.92-4.10Q20.67-4.10 22.98-5.47L22.98-5.47L22.98-5.47Q25.28-6.85 26.59-9.18L26.59-9.18L26.59-9.18Q27.90-11.52 27.90-14.34L27.90-14.34L27.90-47.49L27.90-47.49Q27.90-48.58 28.64-49.28L28.64-49.28L28.64-49.28Q29.38-49.98 30.40-49.98L30.40-49.98L30.40-49.98Q31.49-49.98 32.19-49.28L32.19-49.28L32.19-49.28Q32.90-48.58 32.90-47.49L32.90-47.49L32.90-14.34ZM61.06-50.62L61.06-50.62Q66.11-50.62 69.95-48.38L69.95-48.38L69.95-48.38Q73.79-46.14 75.97-42.56L75.97-42.56L75.97-42.56Q76.42-41.86 76.42-41.02L76.42-41.02L76.42-41.02Q76.42-39.81 75.26-39.10L75.26-39.10L75.26-39.10Q74.75-38.85 74.11-38.85L74.11-38.85L74.11-38.85Q73.41-38.85 72.80-39.20L72.80-39.20L72.80-39.20Q72.19-39.55 71.81-40.19L71.81-40.19L71.81-40.19Q68.22-45.82 60.99-45.89L60.99-45.89L60.99-45.89Q55.81-45.89 52.80-43.71L52.80-43.71L52.80-43.71Q49.79-41.54 49.79-37.50L49.79-37.50L49.79-37.50Q49.79-30.02 61.89-28.42L61.89-28.42L61.89-28.42Q69.82-27.26 73.73-23.55L73.73-23.55L73.73-23.55Q77.63-19.84 77.63-13.76L77.63-13.76L77.63-13.76Q77.63-9.28 75.46-6.02L75.46-6.02L75.46-6.02Q73.28-2.75 69.50-1.06L69.50-1.06L69.50-1.06Q65.73 0.64 61.06 0.64L61.06 0.64L61.06 0.64Q54.98 0.64 50.27-1.95L50.27-1.95L50.27-1.95Q45.57-4.54 43.52-8.96L43.52-8.96L43.52-8.96Q43.26-9.41 43.26-9.98L43.26-9.98L43.26-9.98Q43.26-10.88 43.94-11.49L43.94-11.49L43.94-11.49Q44.61-12.10 45.76-12.10L45.76-12.10L45.76-12.10Q46.53-12.10 47.20-11.68L47.20-11.68L47.20-11.68Q47.87-11.26 48.19-10.50L48.19-10.50L48.19-10.50Q49.66-7.62 53.09-5.86L53.09-5.86L53.09-5.86Q56.51-4.10 61.06-4.10L61.06-4.10L61.06-4.10Q66.30-4.10 69.50-6.62L69.50-6.62L69.50-6.62Q72.70-9.15 72.70-13.70L72.70-13.70L72.70-13.70Q72.70-17.73 69.73-20.48L69.73-20.48L69.73-20.48Q66.75-23.23 60.80-24L60.80-24L60.80-24Q53.38-24.90 49.12-28.64L49.12-28.64L49.12-28.64Q44.86-32.38 44.86-37.82L44.86-37.82L44.86-37.82Q44.86-41.66 46.94-44.58L46.94-44.58L46.94-44.58Q49.02-47.49 52.70-49.06L52.70-49.06L52.70-49.06Q56.38-50.62 61.06-50.62L61.06-50.62Z" fill="#23395b"></path></g></g><style>text {
  font-size: 64px;
  font-family: Arial Black;
  dominant-baseline: central;
  text-anchor: middle;
}</style></svg>