<svg width="100.79999389648437px" height="141.239990234375px" xmlns="http://www.w3.org/2000/svg" viewBox="199.60000305175782 4.3800048828125 100.79999389648437 141.239990234375" style="background: rgba(0, 0, 0, 0) none repeat scroll 0% 0%;" preserveAspectRatio="xMidYMid"><defs><filter id="editing-extrusion" x="-100%" y="-100%" width="300%" height="300%"><feFlood result="color1" flood-color="#444444"></feFlood><feConvolveMatrix order="1,1" divisor="1" kernelMatrix="1" in="SourceAlpha" result="extrude"></feConvolveMatrix><feComposite in="color1" in2="extrude" result="comp-extrude" operator="in"></feComposite><feOffset dx="0.5" dy="0.5" in="comp-extrude" result="offset-extrude"></feOffset><feMerge><feMergeNode in="offset-extrude"></feMergeNode><feMergeNode in="SourceGraphic"></feMergeNode></feMerge></filter></defs><g filter="url(#editing-extrusion)"><g transform="translate(225.20508003234863, 104.25)"><path d="M-0.25 12.16L-0.25 12.16L-0.25 12.16Q-3.19 12.16-5 11.31L-5 11.31L-5 6.47L-5 6.47Q-2.78 7.09-0.38 7.09L-0.38 7.09L-0.38 7.09Q2.75 7.09 4.31 5.20L4.31 5.20L4.31 5.20Q5.88 3.31 5.88-0.25L5.88-0.25L5.88-45.69L11.66-45.69L11.66-0.72L11.66-0.72Q11.66 5.47 8.58 8.81L8.58 8.81L8.58 8.81Q5.50 12.16-0.25 12.16ZM49.59-12.22L49.59-12.22L49.59-12.22Q49.59-6.25 45.28-2.81L45.28-2.81L45.28-2.81Q40.97 0.63 33.28 0.63L33.28 0.63L33.28 0.63Q25.16 0.63 20.72-1.53L20.72-1.53L20.72-7.03L20.72-7.03Q23.63-5.78 27.08-5.06L27.08-5.06L27.08-5.06Q30.53-4.34 33.53-4.34L33.53-4.34L33.53-4.34Q38.66-4.34 41.25-6.31L41.25-6.31L41.25-6.31Q43.84-8.28 43.84-11.72L43.84-11.72L43.84-11.72Q43.84-14 42.91-15.47L42.91-15.47L42.91-15.47Q41.97-16.94 39.77-18.22L39.77-18.22L39.77-18.22Q37.56-19.50 33.09-21.13L33.09-21.13L33.09-21.13Q26.75-23.44 24.03-26.58L24.03-26.58L24.03-26.58Q21.31-29.72 21.31-34.69L21.31-34.69L21.31-34.69Q21.31-40.03 25.33-43.19L25.33-43.19L25.33-43.19Q29.34-46.34 35.91-46.34L35.91-46.34L35.91-46.34Q42.75-46.34 48.50-43.78L48.50-43.78L46.72-38.84L46.72-38.84Q40.84-41.28 35.78-41.28L35.78-41.28L35.78-41.28Q31.72-41.28 29.42-39.53L29.42-39.53L29.42-39.53Q27.13-37.78 27.13-34.63L27.13-34.63L27.13-34.63Q27.13-32.38 28.02-30.89L28.02-30.89L28.02-30.89Q28.91-29.41 30.89-28.19L30.89-28.19L30.89-28.19Q32.88-26.97 37.13-25.41L37.13-25.41L37.13-25.41Q42.22-23.53 44.72-21.77L44.72-21.77L44.72-21.77Q47.22-20 48.41-17.70L48.41-17.70L48.41-17.70Q49.59-15.41 49.59-12.22Z" fill="#23395b"></path></g></g><style>text {
  font-size: 64px;
  font-family: Arial Black;
  dominant-baseline: central;
  text-anchor: middle;
}</style></svg>