<?xml version="1.0" standalone="no"?>
<!DOCTYPE svg PUBLIC "-//W3C//DTD SVG 20010904//EN"
 "http://www.w3.org/TR/2001/REC-SVG-20010904/DTD/svg10.dtd">
<svg version="1.0" xmlns="http://www.w3.org/2000/svg"
 width="120.000000pt" height="120.000000pt" viewBox="0 0 120.000000 120.000000"
 preserveAspectRatio="xMidYMid meet">
<metadata>
Created by potrace 1.14, written by Peter Selinger 2001-2017
</metadata>
<g transform="translate(0.000000,120.000000) scale(0.100000,-0.100000)"
fill="#000000" stroke="none">
<path d="M66 1181 c-15 -10 -37 -32 -47 -47 -18 -27 -19 -55 -19 -488 0 -315
4 -471 11 -497 16 -52 60 -102 111 -128 41 -20 56 -21 478 -20 479 0 471 -1
534 63 67 66 66 59 66 567 0 299 -4 467 -11 486 -12 33 -39 60 -74 73 -16 6
-221 10 -523 10 -470 0 -499 -1 -526 -19z"/>
</g>
</svg>
